<?xml version="1.0" encoding="UTF-8" standalone="no"?>
<!DOCTYPE svg PUBLIC "-//W3C//DTD SVG 1.1//EN" "http://www.w3.org/Graphics/SVG/1.1/DTD/svg11.dtd">
<svg width="100%" height="100%" viewBox="0 0 5038 3508" version="1.1" xmlns="http://www.w3.org/2000/svg" xmlns:xlink="http://www.w3.org/1999/xlink" xml:space="preserve" xmlns:serif="http://www.serif.com/" style="fill-rule:evenodd;clip-rule:evenodd;stroke-linejoin:round;stroke-miterlimit:2;">
    <g id="Layer-1" serif:id="Layer 1" transform="matrix(4.16667,0,0,4.16667,0,0)">
        <g transform="matrix(1,0,0,1,612.258,393.532)">
            <path d="M0,46.729C0,32.03 -8.51,25.066 -15.164,21.97C-9.595,19.341 -1.547,11.448 -1.547,-0.775C-1.547,-19.652 -14.08,-31.723 -35.59,-31.723L-79.844,-31.723L-79.844,78.449L-33.732,78.449C-14.08,78.449 0,67.31 0,46.729M-23.055,0.154C-23.055,7.735 -28.162,12.842 -37.292,12.842L-58.336,12.842L-58.336,-12.536L-37.292,-12.536C-28.162,-12.536 -23.055,-7.429 -23.055,0.154M-21.508,45.647C-21.508,53.073 -26.151,59.262 -35.898,59.262L-58.336,59.262L-58.336,32.184L-35.898,32.184C-26.151,32.184 -21.508,38.219 -21.508,45.647M108.468,78.449L108.468,59.262L57.406,59.262L57.406,32.494L100.888,32.494L100.888,13.305L57.406,13.305L57.406,-12.536L108.468,-12.536L108.468,-31.723L35.898,-31.723L35.898,78.449L108.468,78.449ZM230.092,78.449L189.859,-31.723L172.993,-31.723L132.917,78.449L155.353,78.449L162.007,58.952L201.155,58.952L207.654,78.449L230.092,78.449ZM195.431,40.85L168.041,40.85L181.968,0.772L195.431,40.85ZM335,44.563L313.182,44.563C311.016,53.383 305.446,60.192 294.615,60.192C288.733,60.192 283.938,58.025 280.842,54.465C276.664,49.825 275.427,44.563 275.427,23.364C275.427,2.166 276.664,-3.096 280.842,-7.739C283.938,-11.297 288.733,-13.463 294.615,-13.463C305.446,-13.463 311.016,-6.654 313.182,2.166L335,2.166C331.132,-20.891 315.039,-32.65 294.46,-32.65C282.389,-32.65 272.487,-28.318 264.751,-20.582C253.609,-9.44 253.919,4.332 253.919,23.364C253.919,42.396 253.609,56.169 264.751,67.31C272.487,75.046 282.389,79.379 294.46,79.379C314.884,79.379 331.132,67.618 335,44.563M446.254,78.449L446.254,-31.723L424.746,-31.723L424.746,13.305L387.454,13.305L387.454,-31.723L365.946,-31.723L365.946,78.449L387.454,78.449L387.454,32.339L424.746,32.339L424.746,78.449L446.254,78.449Z" style="fill:white;fill-rule:nonzero;"/>
        </g>
        <g transform="matrix(1,0,0,1,604.986,204.655)">
            <path d="M0,110.173L0,90.986L-51.062,90.986L-51.062,64.216L-7.583,64.216L-7.583,45.029L-51.062,45.029L-51.062,19.188L0,19.188L0,0.001L-72.571,0.001L-72.571,110.173L0,110.173ZM103.363,110.173L103.363,90.986L53.383,90.986L53.383,0.001L31.875,0.001L31.875,110.173L103.363,110.173ZM211.524,78.453C211.524,63.751 203.014,56.79 196.36,53.694C201.93,51.063 209.975,43.172 209.975,30.949C209.975,12.069 197.442,0.001 175.934,0.001L131.681,0.001L131.681,110.173L177.791,110.173C197.442,110.173 211.524,99.032 211.524,78.453M188.467,31.876C188.467,39.459 183.362,44.564 174.232,44.564L153.189,44.564L153.189,19.188L174.232,19.188C183.362,19.188 188.467,24.295 188.467,31.876M190.016,77.369C190.016,84.797 185.374,90.986 175.624,90.986L153.189,90.986L153.189,63.906L175.624,63.906C185.374,63.906 190.016,69.942 190.016,77.369M322.004,55.086C322.004,36.054 322.159,22.283 311.018,11.142C303.282,3.404 293.842,-0.929 281.309,-0.929C268.774,-0.929 259.181,3.404 251.445,11.142C240.304,22.283 240.612,36.054 240.612,55.086C240.612,74.12 240.304,87.89 251.445,99.032C259.181,106.77 268.774,111.102 281.309,111.102C293.842,111.102 303.282,106.77 311.018,99.032C322.159,87.89 322.004,74.12 322.004,55.086M300.496,55.086C300.496,76.286 299.257,81.391 295.079,86.034C291.986,89.594 287.188,91.913 281.309,91.913C275.427,91.913 270.477,89.594 267.382,86.034C263.204,81.391 262.122,76.286 262.122,55.086C262.122,33.887 263.204,28.782 267.382,24.14C270.477,20.58 275.427,18.258 281.309,18.258C287.188,18.258 291.986,20.58 295.079,24.14C299.257,28.782 300.496,33.887 300.496,55.086M476.738,0.001L454.302,0.001L437.127,69.478L417.01,0.001L400.917,0.001L380.802,69.478L363.782,0.001L341.344,0.001L370.743,110.173L388.693,110.173L408.965,43.327L429.234,110.173L447.184,110.173L476.738,0.001Z" style="fill:white;fill-rule:nonzero;"/>
        </g>
        <g transform="matrix(1,0,0,1,586.271,543.939)">
            <path d="M0,33.018L-5.681,33.018C-7.932,43.525 -15.651,50.17 -25.943,50.17C-31.411,50.17 -36.557,48.134 -40.416,44.275C-45.883,38.808 -46.311,32.911 -46.311,16.508C-46.311,0.107 -45.883,-5.79 -40.416,-11.257C-36.557,-15.117 -31.411,-17.154 -25.943,-17.154C-15.651,-17.154 -8.148,-10.507 -5.897,-0L0,-0C-2.465,-13.829 -12.328,-22.298 -25.943,-22.298C-33.125,-22.298 -39.986,-19.512 -45.026,-14.473C-51.994,-7.505 -52.101,-0.751 -52.101,16.508C-52.101,33.769 -51.994,40.523 -45.026,47.491C-39.986,52.528 -33.125,55.316 -25.943,55.316C-12.542,55.316 -2.465,46.847 0,33.018M92.515,54.672L64.429,-21.655L59.282,-21.655L31.194,54.672L37.412,54.672L44.059,36.127L79.65,36.127L86.297,54.672L92.515,54.672ZM77.828,30.98L45.881,30.98L61.854,-13.936L77.828,30.98ZM179.455,0.32C179.455,-13.616 169.592,-21.655 156.407,-21.655L128.428,-21.655L128.428,54.672L134.216,54.672L134.216,22.298L156.407,22.298C169.592,22.298 179.455,14.259 179.455,0.32M173.667,0.32C173.667,11.791 166.27,17.151 155.763,17.151L134.216,17.151L134.216,-16.511L155.763,-16.511C166.27,-16.511 173.667,-11.15 173.667,0.32M224.374,-21.655L218.584,-21.655L218.584,54.674L224.374,54.674L224.374,-21.655ZM313.243,-16.511L313.243,-21.655L261.893,-21.655L261.893,-16.511L284.621,-16.511L284.621,54.672L290.408,54.672L290.408,-16.511L313.243,-16.511ZM395.461,54.672L367.373,-21.655L362.229,-21.655L334.141,54.672L340.358,54.672L347.005,36.127L382.596,36.127L389.243,54.672L395.461,54.672ZM380.774,30.98L348.827,30.98L364.8,-13.936L380.774,30.98ZM477.685,54.672L477.685,49.528L437.162,49.528L437.162,-21.655L431.372,-21.655L431.372,54.672L477.685,54.672Z" style="fill:white;fill-rule:nonzero;"/>
        </g>
        <g transform="matrix(1,0,0,1,480.333,370.011)">
            <path d="M0,-49.068L0,-165.678L-412.724,-165.678L-412.724,116.61C-352.75,101.826 -263.824,86.825 -263.824,86.825C-254.349,84.938 -249.654,83.708 -249.654,83.708C-203.603,69.235 -207.523,57.594 -207.523,57.594C-207.523,57.594 -209.413,-2.912 -241.009,-34.621C-321.908,-115.816 -373.926,-129.342 -389.42,-140.701C-389.59,-140.826 -387.653,-143.531 -387.67,-143.491C-333.94,-129.662 -180.81,-55.597 -180.81,-55.597C-152.587,-15.862 -126.595,28.994 -126.595,28.994C-121.667,32.665 -113.172,30.146 -113.172,30.146C-81.999,18.448 -24.388,-28.5 0,-49.068" style="fill:rgb(226,191,199);fill-rule:nonzero;"/>
        </g>
        <g transform="matrix(1,0,0,1,67.6104,464.352)">
            <path d="M0,29.685L0,135.913L412.724,135.913L412.724,-106.228C396.99,-96.483 364.222,-79.972 348.524,-72.042C330.196,-62.784 327.903,-52.72 327.903,-52.72C327.903,-52.72 325.552,-48.174 327.271,-47.82C333.988,-46.441 347.352,-43.197 356.133,-39.042C364.912,-34.888 367.412,-23.441 367.412,-23.441C387.973,-14.051 388.925,-6.623 388.925,-6.623C388.925,-6.623 372.12,-9.477 358.275,-10.89C344.433,-12.302 335.89,-7.443 324.247,-4.45C312.606,-1.457 265.826,6.722 233.445,7.483C190.45,8.495 140.721,2.125 145.318,1.501C145.318,1.501 64.874,14.087 0,29.685" style="fill:rgb(226,191,199);fill-rule:nonzero;"/>
        </g>
    </g>
</svg>
